<svg width="1920" height="167" viewBox="0 0 1920 167" fill="none" xmlns="http://www.w3.org/2000/svg">
<path d="M0 24.7118L24.027 12.7341L55.7427 19.823L86.257 24.7118L122.057 19.823L144.643 31.0674L188.132 19.823H214.321L247.478 24.7118L265.979 12.7341L283.279 19.823L308.747 12.7341L326.768 31.0674L371.458 12.7341L382.03 19.823L406.057 12.7341H430.084L452.189 24.7118L476.937 12.7341H510.094L548.057 24.7118L619.177 12.7341L644.645 19.823L690.777 24.7118L725.857 12.7341L754.929 24.7118L790.009 12.7341L808.75 24.7118L824.608 12.7341L833.498 19.823L903.176 0.267395L921.677 12.7341L950.029 19.823L966.607 29.6007L979.582 5.15628L997.602 19.823L1020.19 12.7341L1031.96 24.7118L1047.82 12.7341L1065.12 19.823V33.2674L1089.15 12.7341L1103.8 24.7118L1132.63 12.7341L1163.63 24.7118H1195.34L1230.66 19.823L1249.89 29.6007L1296.02 19.823L1354.64 24.7118L1371.94 12.7341L1389 19.823L1415.91 12.7341L1429.85 29.6007L1476.7 12.7341L1484.15 19.823L1512.5 12.7341H1533.89L1553.11 24.7118L1587.71 12.7341H1616.54L1654.5 24.7118L1726.34 12.7341L1752.53 19.823H1793.14L1832.3 12.7341L1862.09 29.6007L1896.45 12.7341L1913.03 19.823L1920 3.68962V33.2674H1065.12H0V24.7118Z" fill="#C1EB6A"/>
<rect y="44.2674" width="1920" height="123" fill="#DBD659"/>
<rect y="33.2674" width="1920" height="11" fill="url(#paint0_linear)"/>
<rect y="44.2674" width="35" height="15" fill="url(#paint1_linear)"/>
<rect x="1843" y="44.2674" width="35" height="15" fill="url(#paint2_linear)"/>
<rect x="97" y="44.2674" width="35" height="15" fill="url(#paint3_linear)"/>
<rect x="1455" y="44.2674" width="35" height="15" fill="url(#paint4_linear)"/>
<rect x="485" y="44.2674" width="35" height="15" fill="url(#paint5_linear)"/>
<rect x="1358" y="44.2674" width="35" height="15" fill="url(#paint6_linear)"/>
<rect x="1261" y="44.2674" width="35" height="15" fill="url(#paint7_linear)"/>
<rect x="1164" y="44.2674" width="35" height="15" fill="url(#paint8_linear)"/>
<rect x="1067" y="44.2674" width="35" height="15" fill="url(#paint9_linear)"/>
<rect x="970" y="44.2674" width="35" height="15" fill="url(#paint10_linear)"/>
<rect x="873" y="44.2674" width="35" height="15" fill="url(#paint11_linear)"/>
<rect x="776" y="44.2674" width="35" height="15" fill="url(#paint12_linear)"/>
<rect x="679" y="44.2674" width="35" height="15" fill="url(#paint13_linear)"/>
<rect x="291" y="44.2674" width="35" height="15" fill="url(#paint14_linear)"/>
<rect x="194" y="44.2674" width="35" height="15" fill="url(#paint15_linear)"/>
<rect x="388" y="44.2674" width="35" height="15" fill="url(#paint16_linear)"/>
<rect x="582" y="44.2674" width="35" height="15" fill="url(#paint17_linear)"/>
<rect x="1552" y="44.2674" width="35" height="15" fill="url(#paint18_linear)"/>
<rect x="1649" y="44.2674" width="35" height="15" fill="url(#paint19_linear)"/>
<rect x="1746" y="44.2674" width="35" height="15" fill="url(#paint20_linear)"/>
<defs>
<linearGradient id="paint0_linear" x1="960" y1="33.2674" x2="960" y2="44.2674" gradientUnits="userSpaceOnUse">
<stop offset="0.588442" stop-color="#535044"/>
<stop offset="0.588542" stop-color="#2C2A24"/>
</linearGradient>
<linearGradient id="paint1_linear" x1="17.5" y1="44.2674" x2="17.5" y2="59.2674" gradientUnits="userSpaceOnUse">
<stop offset="0.557192" stop-color="#DD923B"/>
<stop offset="0.557292" stop-color="#C25B0F"/>
</linearGradient>
<linearGradient id="paint2_linear" x1="1860.5" y1="44.2674" x2="1860.5" y2="59.2674" gradientUnits="userSpaceOnUse">
<stop offset="0.557192" stop-color="#DD923B"/>
<stop offset="0.557292" stop-color="#C25B0F"/>
</linearGradient>
<linearGradient id="paint3_linear" x1="114.5" y1="44.2674" x2="114.5" y2="59.2674" gradientUnits="userSpaceOnUse">
<stop offset="0.557192" stop-color="#DD923B"/>
<stop offset="0.557292" stop-color="#C25B0F"/>
</linearGradient>
<linearGradient id="paint4_linear" x1="1472.5" y1="44.2674" x2="1472.5" y2="59.2674" gradientUnits="userSpaceOnUse">
<stop offset="0.557192" stop-color="#DD923B"/>
<stop offset="0.557292" stop-color="#C25B0F"/>
</linearGradient>
<linearGradient id="paint5_linear" x1="502.5" y1="44.2674" x2="502.5" y2="59.2674" gradientUnits="userSpaceOnUse">
<stop offset="0.557192" stop-color="#DD923B"/>
<stop offset="0.557292" stop-color="#C25B0F"/>
</linearGradient>
<linearGradient id="paint6_linear" x1="1375.5" y1="44.2674" x2="1375.5" y2="59.2674" gradientUnits="userSpaceOnUse">
<stop offset="0.557192" stop-color="#DD923B"/>
<stop offset="0.557292" stop-color="#C25B0F"/>
</linearGradient>
<linearGradient id="paint7_linear" x1="1278.5" y1="44.2674" x2="1278.5" y2="59.2674" gradientUnits="userSpaceOnUse">
<stop offset="0.557192" stop-color="#DD923B"/>
<stop offset="0.557292" stop-color="#C25B0F"/>
</linearGradient>
<linearGradient id="paint8_linear" x1="1181.5" y1="44.2674" x2="1181.5" y2="59.2674" gradientUnits="userSpaceOnUse">
<stop offset="0.557192" stop-color="#DD923B"/>
<stop offset="0.557292" stop-color="#C25B0F"/>
</linearGradient>
<linearGradient id="paint9_linear" x1="1084.5" y1="44.2674" x2="1084.5" y2="59.2674" gradientUnits="userSpaceOnUse">
<stop offset="0.557192" stop-color="#DD923B"/>
<stop offset="0.557292" stop-color="#C25B0F"/>
</linearGradient>
<linearGradient id="paint10_linear" x1="987.5" y1="44.2674" x2="987.5" y2="59.2674" gradientUnits="userSpaceOnUse">
<stop offset="0.557192" stop-color="#DD923B"/>
<stop offset="0.557292" stop-color="#C25B0F"/>
</linearGradient>
<linearGradient id="paint11_linear" x1="890.5" y1="44.2674" x2="890.5" y2="59.2674" gradientUnits="userSpaceOnUse">
<stop offset="0.557192" stop-color="#DD923B"/>
<stop offset="0.557292" stop-color="#C25B0F"/>
</linearGradient>
<linearGradient id="paint12_linear" x1="793.5" y1="44.2674" x2="793.5" y2="59.2674" gradientUnits="userSpaceOnUse">
<stop offset="0.557192" stop-color="#DD923B"/>
<stop offset="0.557292" stop-color="#C25B0F"/>
</linearGradient>
<linearGradient id="paint13_linear" x1="696.5" y1="44.2674" x2="696.5" y2="59.2674" gradientUnits="userSpaceOnUse">
<stop offset="0.557192" stop-color="#DD923B"/>
<stop offset="0.557292" stop-color="#C25B0F"/>
</linearGradient>
<linearGradient id="paint14_linear" x1="308.5" y1="44.2674" x2="308.5" y2="59.2674" gradientUnits="userSpaceOnUse">
<stop offset="0.557192" stop-color="#DD923B"/>
<stop offset="0.557292" stop-color="#C25B0F"/>
</linearGradient>
<linearGradient id="paint15_linear" x1="211.5" y1="44.2674" x2="211.5" y2="59.2674" gradientUnits="userSpaceOnUse">
<stop offset="0.557192" stop-color="#DD923B"/>
<stop offset="0.557292" stop-color="#C25B0F"/>
</linearGradient>
<linearGradient id="paint16_linear" x1="405.5" y1="44.2674" x2="405.5" y2="59.2674" gradientUnits="userSpaceOnUse">
<stop offset="0.557192" stop-color="#DD923B"/>
<stop offset="0.557292" stop-color="#C25B0F"/>
</linearGradient>
<linearGradient id="paint17_linear" x1="599.5" y1="44.2674" x2="599.5" y2="59.2674" gradientUnits="userSpaceOnUse">
<stop offset="0.557192" stop-color="#DD923B"/>
<stop offset="0.557292" stop-color="#C25B0F"/>
</linearGradient>
<linearGradient id="paint18_linear" x1="1569.5" y1="44.2674" x2="1569.5" y2="59.2674" gradientUnits="userSpaceOnUse">
<stop offset="0.557192" stop-color="#DD923B"/>
<stop offset="0.557292" stop-color="#C25B0F"/>
</linearGradient>
<linearGradient id="paint19_linear" x1="1666.5" y1="44.2674" x2="1666.5" y2="59.2674" gradientUnits="userSpaceOnUse">
<stop offset="0.557192" stop-color="#DD923B"/>
<stop offset="0.557292" stop-color="#C25B0F"/>
</linearGradient>
<linearGradient id="paint20_linear" x1="1763.5" y1="44.2674" x2="1763.5" y2="59.2674" gradientUnits="userSpaceOnUse">
<stop offset="0.557192" stop-color="#DD923B"/>
<stop offset="0.557292" stop-color="#C25B0F"/>
</linearGradient>
</defs>
</svg>
