<svg width="385" height="146" viewBox="0 0 385 146" fill="none" xmlns="http://www.w3.org/2000/svg">
<mask id="path-1-inside-1" fill="white">
<path fill-rule="evenodd" clip-rule="evenodd" d="M207 38.5C207 38.8066 206.994 39.1123 206.982 39.4172C211.393 39.1424 215.907 39 220.5 39C227.644 39 234.597 39.3445 241.269 39.9961C253.388 26.991 279.385 18 309.5 18C351.198 18 385 35.237 385 56.5C385 77.763 351.198 95 309.5 95C307.049 95 304.626 94.9405 302.235 94.8241C293.035 102.494 277.917 108.692 259.405 112.357C254.723 131.327 222.972 146 184.5 146C167.601 146 151.998 143.169 139.417 138.386C128.836 143.169 115.713 146 101.5 146C66.4299 146 38 128.763 38 107.5C38 105.287 38.308 103.117 38.8994 101.006C15.3722 94.0395 0 82.5251 0 69.5C0 49.7129 35.4763 33.4123 81.1258 31.2447C86.7227 13.4504 112.521 0 143.5 0C178.57 0 207 17.237 207 38.5Z"/>
</mask>
<path fill-rule="evenodd" clip-rule="evenodd" d="M207 38.5C207 38.8066 206.994 39.1123 206.982 39.4172C211.393 39.1424 215.907 39 220.5 39C227.644 39 234.597 39.3445 241.269 39.9961C253.388 26.991 279.385 18 309.5 18C351.198 18 385 35.237 385 56.5C385 77.763 351.198 95 309.5 95C307.049 95 304.626 94.9405 302.235 94.8241C293.035 102.494 277.917 108.692 259.405 112.357C254.723 131.327 222.972 146 184.5 146C167.601 146 151.998 143.169 139.417 138.386C128.836 143.169 115.713 146 101.5 146C66.4299 146 38 128.763 38 107.5C38 105.287 38.308 103.117 38.8994 101.006C15.3722 94.0395 0 82.5251 0 69.5C0 49.7129 35.4763 33.4123 81.1258 31.2447C86.7227 13.4504 112.521 0 143.5 0C178.57 0 207 17.237 207 38.5Z" fill="white"/>
<path d="M206.982 39.4172L204.984 39.3402L204.899 41.5509L207.107 41.4133L206.982 39.4172ZM241.269 39.9961L241.075 41.9866L242.059 42.0827L242.732 41.3596L241.269 39.9961ZM302.235 94.8241L302.333 92.8264L301.554 92.7885L300.955 93.2879L302.235 94.8241ZM259.405 112.357L259.017 110.395L257.768 110.642L257.463 111.877L259.405 112.357ZM139.417 138.386L140.128 136.516L139.351 136.221L138.593 136.563L139.417 138.386ZM38.8994 101.006L40.8253 101.546L41.3569 99.6483L39.4673 99.0887L38.8994 101.006ZM81.1258 31.2447L81.2207 33.2425L82.6149 33.1763L83.0337 31.8448L81.1258 31.2447ZM208.981 39.4942C208.994 39.1638 209 38.8323 209 38.5H205C205 38.7808 204.995 39.0609 204.984 39.3402L208.981 39.4942ZM220.5 37C215.866 37 211.311 37.1437 206.858 37.4211L207.107 41.4133C211.476 41.1411 215.948 41 220.5 41V37ZM241.464 38.0056C234.725 37.3475 227.708 37 220.5 37V41C227.58 41 234.468 41.3414 241.075 41.9866L241.464 38.0056ZM309.5 16C279.128 16 252.467 25.0457 239.806 38.6326L242.732 41.3596C254.309 28.9362 279.642 20 309.5 20V16ZM387 56.5C387 44.7235 377.685 34.5775 363.795 27.4947C349.797 20.3564 330.597 16 309.5 16V20C330.1 20 348.651 24.2621 361.978 31.0581C375.414 37.9095 383 47.0135 383 56.5H387ZM309.5 97C330.597 97 349.797 92.6436 363.795 85.5053C377.685 78.4225 387 68.2765 387 56.5H383C383 65.9865 375.414 75.0905 361.978 81.9419C348.651 88.7379 330.1 93 309.5 93V97ZM302.138 96.8217C304.561 96.9397 307.017 97 309.5 97V93C307.082 93 304.691 92.9412 302.333 92.8264L302.138 96.8217ZM259.793 114.318C278.464 110.623 293.953 104.333 303.516 96.3603L300.955 93.2879C292.118 100.655 277.369 106.762 259.017 110.395L259.793 114.318ZM184.5 148C203.971 148 221.816 144.29 235.449 138.114C248.992 131.978 258.787 123.207 261.347 112.836L257.463 111.877C255.341 120.477 246.919 128.527 233.798 134.47C220.767 140.374 203.501 144 184.5 144V148ZM138.707 140.255C151.542 145.135 167.389 148 184.5 148V144C167.812 144 152.455 141.203 140.128 136.516L138.707 140.255ZM138.593 136.563C128.296 141.218 115.458 144 101.5 144V148C115.968 148 129.376 145.12 140.241 140.208L138.593 136.563ZM101.5 144C84.2688 144 68.7653 139.761 57.6356 133.013C46.4693 126.243 40 117.163 40 107.5H36C36 119.1 43.7457 129.27 55.5618 136.434C67.4146 143.62 83.6611 148 101.5 148V144ZM40 107.5C40 105.474 40.2817 103.486 40.8253 101.546L36.9736 100.467C36.3343 102.748 36 105.099 36 107.5H40ZM-2 69.5C-2 76.8631 2.34839 83.5147 9.38461 89.0923C16.4358 94.6817 26.4206 99.397 38.3315 102.924L39.4673 99.0887C27.851 95.6489 18.3861 91.1234 11.8694 85.9577C5.33771 80.7801 2 75.1619 2 69.5H-2ZM81.031 29.247C58.0213 30.3395 37.4685 34.9953 22.5968 41.9535C15.163 45.4316 9.06086 49.526 4.79168 54.118C0.512166 58.7211 -2 63.9139 -2 69.5H2C2 65.1925 3.92237 60.9276 7.72121 56.8415C11.5304 52.7443 17.1504 48.918 24.2919 45.5766C38.5707 38.8958 58.5809 34.3175 81.2207 33.2425L81.031 29.247ZM143.5 -2C127.736 -2 113.225 1.41982 101.89 7.16558C90.591 12.8932 82.2353 21.0515 79.218 30.6446L83.0337 31.8448C85.6132 23.6436 92.9549 16.1795 103.699 10.7334C114.407 5.30537 128.285 2 143.5 2V-2ZM209 38.5C209 26.9003 201.254 16.7303 189.438 9.56617C177.585 2.37983 161.339 -2 143.5 -2V2C160.731 2 176.235 6.23869 187.364 12.9866C198.531 19.7567 205 28.8367 205 38.5H209Z" fill="#CFCFCF" mask="url(#path-1-inside-1)"/>
</svg>
