<svg width="231" height="103" viewBox="0 0 231 103" fill="none" xmlns="http://www.w3.org/2000/svg">
<mask id="path-1-inside-1" fill="white">
<path fill-rule="evenodd" clip-rule="evenodd" d="M181.933 15.3042C171.019 6.08316 152.282 0 131 0C109.057 0 89.8198 6.4668 79.0728 16.1721C73.362 15.1847 67.2923 14.653 61 14.653C27.3106 14.653 0 29.8962 0 48.6996C0 67.5031 27.3106 82.7463 61 82.7463C61.1867 82.7463 61.3732 82.7458 61.5595 82.7449C71.2109 94.4471 92.4057 102.571 117 102.571C141.612 102.571 162.82 94.4351 172.462 82.719C205.01 81.998 231 67.0429 231 48.6996C231 32.1756 209.909 18.4009 181.933 15.3042Z"/>
</mask>
<path fill-rule="evenodd" clip-rule="evenodd" d="M181.933 15.3042C171.019 6.08316 152.282 0 131 0C109.057 0 89.8198 6.4668 79.0728 16.1721C73.362 15.1847 67.2923 14.653 61 14.653C27.3106 14.653 0 29.8962 0 48.6996C0 67.5031 27.3106 82.7463 61 82.7463C61.1867 82.7463 61.3732 82.7458 61.5595 82.7449C71.2109 94.4471 92.4057 102.571 117 102.571C141.612 102.571 162.82 94.4351 172.462 82.719C205.01 81.998 231 67.0429 231 48.6996C231 32.1756 209.909 18.4009 181.933 15.3042Z" fill="white"/>
<path d="M181.933 15.3042L180.642 16.8319L181.108 17.225L181.713 17.292L181.933 15.3042ZM79.0728 16.1721L78.7321 18.1429L79.691 18.3087L80.4133 17.6564L79.0728 16.1721ZM61.5595 82.7449L63.1025 81.4723L62.4986 80.7401L61.5496 80.7449L61.5595 82.7449ZM172.462 82.719L172.417 80.7195L171.5 80.7399L170.917 81.4482L172.462 82.719ZM183.224 13.7764C171.842 4.16057 152.594 -2 131 -2V2C151.971 2 170.196 8.00576 180.642 16.8319L183.224 13.7764ZM131 -2C108.744 -2 88.9628 4.54588 77.7324 14.6878L80.4133 17.6564C90.6768 8.38772 109.37 2 131 2V-2ZM79.4136 14.2013C73.5879 13.1941 67.4042 12.653 61 12.653V16.653C67.1804 16.653 73.136 17.1753 78.7321 18.1429L79.4136 14.2013ZM61 12.653C43.8794 12.653 28.2808 16.5219 16.8918 22.8786C5.56855 29.1986 -2 38.2465 -2 48.6996H2C2 40.3493 8.08676 32.3739 18.8412 26.3714C29.5298 20.4056 44.4312 16.653 61 16.653V12.653ZM-2 48.6996C-2 59.1527 5.56855 68.2007 16.8918 74.5206C28.2808 80.8773 43.8794 84.7463 61 84.7463V80.7463C44.4312 80.7463 29.5298 76.9936 18.8412 71.0278C8.08676 65.0253 2 57.05 2 48.6996H-2ZM61 84.7463C61.1901 84.7463 61.3799 84.7458 61.5695 84.7448L61.5496 80.7449C61.3665 80.7458 61.1833 80.7463 61 80.7463V84.7463ZM60.0166 84.0174C70.2016 96.3667 92.1018 104.571 117 104.571V100.571C92.7095 100.571 72.2201 92.5274 63.1025 81.4723L60.0166 84.0174ZM117 104.571C141.916 104.571 163.831 96.3548 174.006 83.9899L170.917 81.4482C161.81 92.5154 141.309 100.571 117 100.571V104.571ZM229 48.6996C229 56.8456 223.211 64.6325 212.934 70.5871C202.713 76.5087 188.423 80.365 172.417 80.7195L172.506 84.7186C189.049 84.3521 204.027 80.3703 214.939 74.0482C225.794 67.7592 233 58.8969 233 48.6996H229ZM181.713 17.292C195.459 18.8136 207.398 22.9494 215.842 28.6264C224.313 34.3219 229 41.3603 229 48.6996H233C233 39.5149 227.142 31.404 218.074 25.3069C208.978 19.1914 196.384 14.8916 182.153 13.3163L181.713 17.292Z" fill="#CFCFCF" mask="url(#path-1-inside-1)"/>
</svg>
