<svg width="273" height="242" viewBox="0 0 273 242" fill="none" xmlns="http://www.w3.org/2000/svg">
<path d="M48.2761 79.8701H151.35C156.044 79.8701 159.85 83.6757 159.85 88.3701V162.471H48.2761V79.8701Z" fill="#E14343" stroke="black" stroke-width="3"/>
<rect x="69.1641" y="86.2718" width="63.2131" height="3.95082" rx="1.97541" fill="#E7E7E7"/>
<path d="M21.7542 121.829C21.7542 102.865 31.6312 84.9548 38.2159 81.6625C44.8006 78.3701 66.2667 79.6871 62.5793 79.6871C57.97 79.6871 54.0192 136.974 55.3361 150.143C56.3897 160.679 60.6039 161.996 62.5793 161.337H158.716V90.2226H169.91V172.531C134.133 173.409 58.7602 174.638 43.4837 172.531C24.388 169.897 21.7542 145.534 21.7542 121.829Z" fill="url(#paint0_linear)" stroke="black" stroke-width="3"/>
<path d="M145.547 137.632H57.3116C56.0214 149.844 57.9701 159.362 61.9209 159.362H156.741C156.741 136.096 156.954 89.1546 156.741 87.5887C156.398 85.0736 151.903 82.2009 150.156 82.321V131.706C150.156 135.92 146.644 137.852 145.547 137.632Z" fill="#B83232"/>
<rect x="33.6067" y="94.1734" width="18.4372" height="7.90164" rx="3.95082" fill="#E7E7E7"/>
<rect x="169.434" y="25.8757" width="76.0164" height="147.131" fill="#E14343" stroke="black" stroke-width="3"/>
<path d="M209.357 102.267C199.317 125.393 194.672 156.95 195.74 170.556H243V52.0314C235.563 58.8753 219.487 78.9367 209.357 102.267Z" fill="#B83232"/>
<mask id="path-8-inside-1" fill="white">
<rect x="178.47" y="44.1298" width="57.9454" height="55.3115" rx="2"/>
</mask>
<rect x="178.47" y="44.1298" width="57.9454" height="55.3115" rx="2" fill="#C0EAF0" stroke="black" stroke-width="6" mask="url(#path-8-inside-1)"/>
<path d="M232.464 95.4904H190.322C203.039 75.675 212.553 67.7697 232.464 58.6161V95.4904Z" fill="#93D7E0"/>
<path d="M185.055 70.1112V51.7145C185.055 51.1622 185.502 50.7145 186.055 50.7145H204.434C205.552 50.7145 205.85 52.338 204.824 52.7824C196.794 56.2616 191.71 60.4372 187.168 70.5182C186.709 71.5368 185.055 71.2284 185.055 70.1112Z" fill="#EBFBFD"/>
<path d="M269.656 153.032H246.293C245.741 153.032 245.293 153.48 245.293 154.032V172.69C245.293 173.243 244.846 173.69 244.293 173.69H33.2896C32.7373 173.69 32.2896 174.138 32.2896 174.69V188.248C32.2896 188.801 32.7373 189.248 33.2896 189.248H240.849C240.965 189.248 241.08 189.228 241.19 189.188L256.691 183.561C257.087 183.418 257.35 183.042 257.35 182.621V163.716C257.35 163.164 257.798 162.716 258.35 162.716H269.656C270.208 162.716 270.656 162.268 270.656 161.716V154.032C270.656 153.48 270.208 153.032 269.656 153.032Z" fill="#535044" stroke="black" stroke-width="3"/>
<path d="M27.0219 191.273V216.879C27.0219 217.984 27.9173 218.879 29.0218 218.879H195.59V187.273H31.0219C28.8127 187.273 27.0219 189.064 27.0219 191.273Z" fill="black"/>
<path d="M32.2896 187.931V173.445H19.1202C11.7454 173.445 9.90164 180.03 6.60929 195.175L2.23922 217.025C2.11546 217.644 2.58876 218.221 3.2198 218.221H26.0219C26.5741 218.221 27.0219 217.773 27.0219 217.221V192.931C27.0219 190.17 29.2604 187.931 32.0219 187.931H32.2896Z" fill="#E14343" stroke="black" stroke-width="3"/>
<path d="M18.0432 191.806C20.3196 188.482 22.9843 187.84 28.3388 187.273C27.6111 187.736 26.3218 189.861 25.9872 191.882V216.246H15.1694L15.6398 200.442C15.6991 197.173 16.4947 195.308 17.9546 191.966C17.9789 191.911 18.009 191.856 18.0432 191.806Z" fill="#B83232"/>
<rect x="15.6105" y="178.054" width="4.0473" height="8.21977" rx="2.02365" transform="rotate(21.9683 15.6105 178.054)" fill="#E7E7E7"/>
<defs>
<linearGradient id="paint0_linear" x1="95.832" y1="79.6871" x2="95.832" y2="173.695" gradientUnits="userSpaceOnUse">
<stop offset="0.510417" stop-color="#535044"/>
<stop offset="0.510517" stop-color="#2C2A24"/>
</linearGradient>
</defs>
</svg>
