<svg width="1920" height="396" viewBox="0 0 1920 396" fill="none" xmlns="http://www.w3.org/2000/svg">
<path d="M0 111.697C82.3727 100.023 131.054 77.1465 222.131 8.7207" stroke="#681111" stroke-width="6"/>
<path d="M223.415 11.7946C460.473 154.775 591.756 166.44 821.757 11.7946C1039.91 167.361 1192.3 223.818 1420.1 11.7946C1512.48 73.4532 1838.45 153.86 1920 76.3471" stroke="#681111" stroke-width="6"/>
<path d="M219.563 0.267395H225.555L229.407 390.657H216.567L219.563 0.267395Z" fill="url(#paint0_linear)"/>
<path d="M218.74 24.924C222.424 24.7773 223.415 24.924 223.415 24.924V73.9767H197.913C195.687 54.2684 215.056 25.0707 218.74 24.924Z" fill="#2C2A24"/>
<path d="M228.09 24.989C224.406 24.8424 223.415 24.989 223.415 24.989V74.0417H248.918C251.143 54.3334 231.775 25.1357 228.09 24.989Z" fill="#2C2A24"/>
<path d="M240.971 49.1283C237.464 41.3682 234.385 36.8785 231.523 33.4258C230.347 32.007 228.122 32.8341 228.132 34.6529L228.311 68.2993C228.317 69.3904 229.195 70.3001 230.285 70.3443L240.335 70.7516C243.247 70.8696 250.539 70.2991 240.971 49.1283Z" fill="#535044"/>
<path d="M211.312 39.2926C210.216 41.61 209.356 43.7407 208.657 45.7334C207.865 47.9909 210.374 48.7042 211.566 46.5915L214.346 41.6647C214.509 41.3764 214.725 41.1202 214.977 40.9155L218.291 38.2324C218.94 37.7067 219.318 36.8724 219.22 36.1045C218.735 32.3089 217.213 26.8152 211.312 39.2926Z" fill="#E7E7E7"/>
<path d="M818.761 4.87827H824.752L828.604 395.267H815.765L818.761 4.87827Z" fill="url(#paint1_linear)"/>
<path d="M817.937 29.5349C821.621 29.3882 822.612 29.5349 822.612 29.5349V78.5876H797.11C794.885 58.8793 814.253 29.6816 817.937 29.5349Z" fill="#2C2A24"/>
<path d="M827.288 29.5999C823.604 29.4532 822.612 29.5999 822.612 29.5999V78.6526H848.115C850.34 58.9443 830.972 29.7466 827.288 29.5999Z" fill="#2C2A24"/>
<path d="M840.168 53.7392C836.661 45.9791 833.582 41.4894 830.721 38.0367C829.545 36.6178 827.32 37.445 827.33 39.2638L827.509 72.9102C827.515 74.0013 828.392 74.911 829.482 74.9552L839.532 75.3624C842.445 75.4805 849.736 74.91 840.168 53.7392Z" fill="#535044"/>
<path d="M810.509 43.9035C809.413 46.2209 808.553 48.3516 807.854 50.3443C807.063 52.6018 809.571 53.3151 810.763 51.2024L813.543 46.2756C813.706 45.9873 813.922 45.7311 814.175 45.5264L817.488 42.8433C818.137 42.3176 818.515 41.4833 818.417 40.7154C817.932 36.9198 816.41 31.4261 810.509 43.9035Z" fill="#E7E7E7"/>
<path d="M1417.1 4.87827H1423.09L1426.95 395.267H1414.11L1417.1 4.87827Z" fill="url(#paint2_linear)"/>
<path d="M1416.28 29.5349C1419.96 29.3882 1420.95 29.5349 1420.95 29.5349V78.5876H1395.45C1393.23 58.8793 1412.59 29.6816 1416.28 29.5349Z" fill="#2C2A24"/>
<path d="M1425.63 29.5999C1421.95 29.4532 1420.95 29.5999 1420.95 29.5999V78.6526H1446.46C1448.68 58.9443 1429.31 29.7466 1425.63 29.5999Z" fill="#2C2A24"/>
<path d="M1438.51 53.7392C1435 45.9791 1431.92 41.4894 1429.06 38.0367C1427.89 36.6178 1425.66 37.445 1425.67 39.2638L1425.85 72.9102C1425.86 74.0013 1426.73 74.911 1427.82 74.9552L1437.87 75.3624C1440.79 75.4805 1448.08 74.91 1438.51 53.7392Z" fill="#535044"/>
<path d="M1408.85 43.9035C1407.76 46.2209 1406.89 48.3516 1406.2 50.3443C1405.4 52.6018 1407.91 53.3151 1409.11 51.2024L1411.88 46.2756C1412.05 45.9873 1412.26 45.7311 1412.52 45.5264L1415.83 42.8433C1416.48 42.3176 1416.86 41.4833 1416.76 40.7154C1416.27 36.9198 1414.75 31.4261 1408.85 43.9035Z" fill="#E7E7E7"/>
<defs>
<linearGradient id="paint0_linear" x1="216.567" y1="195.462" x2="229.407" y2="195.462" gradientUnits="userSpaceOnUse">
<stop offset="0.572917" stop-color="#BA5D07"/>
<stop offset="0.598958" stop-color="#681111"/>
</linearGradient>
<linearGradient id="paint1_linear" x1="815.765" y1="200.073" x2="828.604" y2="200.073" gradientUnits="userSpaceOnUse">
<stop offset="0.572917" stop-color="#BA5D07"/>
<stop offset="0.598958" stop-color="#681111"/>
</linearGradient>
<linearGradient id="paint2_linear" x1="1414.11" y1="200.073" x2="1426.95" y2="200.073" gradientUnits="userSpaceOnUse">
<stop offset="0.572917" stop-color="#BA5D07"/>
<stop offset="0.598958" stop-color="#681111"/>
</linearGradient>
</defs>
</svg>
