<svg width="289" height="134" viewBox="0 0 289 134" fill="none" xmlns="http://www.w3.org/2000/svg">
<path d="M206.722 5.66081C191.748 -4.24572 187.255 6.65146 174.776 29.9318L221.697 32.4084C222.196 30.9225 223.394 27.0589 224.192 23.4926C225.191 19.0346 221.697 15.5673 206.722 5.66081Z" fill="white" stroke="black" stroke-width="3"/>
<path d="M61.9695 57.2861C60.9194 48.9494 52.6328 47.6161 47.1292 48.0813C45.7605 48.197 44.5795 49.0261 43.8403 50.1839L43.4171 50.8468C43.1487 51.267 43.0471 51.7724 43.132 52.2637L44 57.2861L52.4856 65.2113C56.146 66.5322 63.1675 66.7963 61.9695 57.2861Z" fill="white" stroke="black" stroke-width="3"/>
<path d="M3.06783 38.3524C-1.32471 44.6925 8.89128 69.0626 14.5483 80.4551C17.7711 85.2522 22.5773 88.8127 28.2039 90.1313C30.6403 90.7023 32.9725 91.1823 34.5144 91.3523C39.0068 91.8476 60.9695 97.2962 65.961 97.7915C70.9525 98.2869 80.4364 102.249 90.9186 105.221C101.401 108.193 112.881 116.614 131.849 120.081C150.817 123.549 175.275 124.044 195.741 125.034C216.206 126.025 253.642 118.1 260.131 116.614C266.62 115.128 281.595 108.193 285.588 102.249C289.581 96.3055 284.091 77.9785 281.595 74.5112C280.169 72.5299 269.935 69.0372 266.62 68.5673C263.126 68.0719 256.637 65.1 253.642 61.6327C250.964 58.5315 245.416 48.5161 242.162 45.2869C234.675 37.857 226.075 34.1444 218.203 32.4084C209.218 30.4271 185.259 30.4271 170.783 32.4084C156.308 34.3897 129.353 41.8196 119.87 45.2869C110.386 48.7542 50.4873 64.6047 49.489 61.6327C48.4907 58.6607 37.0102 41.3243 34.5144 38.3524C32.0186 35.3804 24.0322 32.4084 19.5398 30.4271C15.0474 28.4458 8.55851 30.4271 3.06783 38.3524Z" fill="white" stroke="black" stroke-width="4"/>
<path d="M97.4077 83.9224C107.79 75.2046 123.031 74.0159 129.354 74.5112C131.516 74.5112 137.54 74.8084 144.328 75.9972C152.814 77.4831 154.81 78.4738 158.304 79.9598C161.798 81.4458 165.792 83.9224 167.788 86.399C169.785 88.8756 168.287 97.2962 165.792 99.2775C163.296 101.259 149.819 107.698 143.829 110.67C137.839 113.642 123.364 118.1 112.881 121.567C102.399 125.034 97.4077 126.52 90.4195 129.492C83.4313 132.464 63.9644 131.969 58.9729 131.969C53.9814 131.969 40.5043 128.997 32.5179 124.539C24.5314 120.081 33.5162 114.633 38.5077 113.642C43.4992 112.651 53.4823 108.689 61.4687 105.717C69.4552 102.745 84.4298 94.8196 97.4077 83.9224Z" fill="white" stroke="black" stroke-width="3"/>
<path d="M3.56704 95.3149C5.16433 91.3523 15.8795 80.1249 21.0374 75.0065C23.4058 72.6563 34.0428 72.5329 38.5077 73.0252C43.0001 73.5205 44.4976 73.5205 48.9899 75.0065C51.9849 75.9972 53.9815 78.9691 52.9832 81.4458C51.9849 83.9224 42.0018 91.8476 38.5077 95.3149C35.0137 98.7822 29.523 100.268 25.5298 101.754C21.5365 103.24 5.56365 102.745 3.56704 101.754C1.57043 100.763 1.57043 100.268 3.56704 95.3149Z" fill="white" stroke="black" stroke-width="3"/>
<path d="M155.807 66.586C155.807 70.1299 152.91 73.0159 149.32 73.0159C145.729 73.0159 142.832 70.1299 142.832 66.586C142.832 63.0421 145.729 60.1561 149.32 60.1561C152.91 60.1561 155.807 63.0421 155.807 66.586Z" fill="#C0EAF0" stroke="black" stroke-width="2"/>
<path d="M146.325 63.1187C143.33 65.5953 144.993 68.0719 145.326 69.0626C146.714 66.681 149.752 63.7623 152.314 63.1187C151.981 62.7885 149.392 60.5823 146.325 63.1187Z" fill="#EBFBFD"/>
<path d="M174.775 67.5766C174.775 71.1205 171.877 74.0065 168.287 74.0065C164.697 74.0065 161.8 71.1205 161.8 67.5766C161.8 64.0327 164.697 61.1467 168.287 61.1467C171.877 61.1467 174.775 64.0327 174.775 67.5766Z" fill="#C0EAF0" stroke="black" stroke-width="2"/>
<path d="M165.292 64.1093C162.298 66.586 163.961 69.0626 164.294 70.0533C165.682 67.6717 168.72 64.7529 171.282 64.1093C170.949 63.7791 168.36 61.573 165.292 64.1093Z" fill="#EBFBFD"/>
<path d="M196.737 70.0532C196.737 73.8707 193.617 76.9785 189.751 76.9785C185.885 76.9785 182.764 73.8707 182.764 70.0532C182.764 66.2358 185.885 63.128 189.751 63.128C193.617 63.128 196.737 66.2358 196.737 70.0532Z" fill="#C0EAF0" stroke="black" stroke-width="2"/>
<path d="M186.556 66.3548C183.362 68.9966 185.136 71.6383 185.491 72.695C186.972 70.1547 190.213 67.0413 192.945 66.3548C192.59 66.0026 189.828 63.6494 186.556 66.3548Z" fill="#EBFBFD"/>
<path d="M216.705 61.6327C220.698 55.1934 232.511 48.7542 238.668 47.2682C240.45 46.6787 242.408 47.3136 243.505 48.8372L246.654 53.2121C249.15 56.6794 257.136 66.0906 256.637 67.0813C256.138 68.0719 252.644 72.5299 250.647 75.0065C248.651 77.4831 244.657 79.9598 238.668 82.4364C232.678 84.913 224.614 85.1034 222.196 84.4177C218.702 83.4271 215.207 79.4644 214.21 75.5018C213.586 73.0252 214.818 64.6745 216.705 61.6327Z" fill="#C0EAF0" stroke="black" stroke-width="3"/>
<path d="M245.955 67.7466C246.354 63.3877 239.299 58.3354 235.473 55.3634C235.473 55.3634 233.87 52.496 232.977 53.3821C231.479 54.8681 235.972 58.8307 238.467 60.812C240.464 62.397 241.961 64.2793 243.459 66.7559C244.124 68.9023 245.819 69.2325 245.955 67.7466Z" fill="#EBFBFD"/>
<path d="M251.055 68.4422C251.454 64.0833 247.395 56.059 243.568 53.087C243.568 53.087 240.573 50.6104 238.376 50.285C236.281 49.9749 234.583 51.1057 243.069 59.031C244.931 60.77 246.562 65.9655 248.06 68.4422C248.958 69.9281 250.919 69.9281 251.055 68.4422Z" fill="#EBFBFD"/>
<path d="M220.264 78.1068C216.967 72.7877 217.11 69.4196 219.24 64.3855C219.591 63.5567 220.776 63.6261 221.1 64.4658C224.332 72.8528 228.415 76.0217 236.295 77.4884C237.342 77.6833 237.51 79.221 236.506 79.5756L233.426 80.6635C227.019 82.7138 223.96 82.591 220.264 78.1068Z" fill="#93D7E0"/>
<path d="M250.148 90.857C251.147 81.4458 256.804 72.695 260.131 69.0626C261.629 68.4022 266.021 67.4775 271.612 69.0626C278.6 71.0439 281.096 74.0159 282.593 77.4831C284.091 80.9504 286.087 89.8663 286.087 94.3242C286.087 95.8906 286.087 102.249 281.096 105.717C279.245 107.002 266.62 115.623 260.131 116.119C255.639 116.462 254.84 115.326 253.642 114.137C250.648 111.165 248.999 101.694 250.148 90.857Z" fill="#E14343" stroke="black" stroke-width="3"/>
<path d="M254.258 112.938C251.79 110.874 251.516 100.039 251.687 94.8795C262.655 93.6756 284.59 92.506 284.59 97.4593C284.59 103.651 279.449 105.199 271.223 110.358C262.997 115.518 257.342 115.518 254.258 112.938Z" fill="#B83232"/>
</svg>
