<svg width="1920" height="248" viewBox="0 0 1920 248" fill="none" xmlns="http://www.w3.org/2000/svg">
<path d="M30.9832 89.1631L0 105.865V247.559H1920V22.8954L1798.71 89.1631L1765.8 70.3065L1737.22 89.1631L1682.46 70.3065L1643.79 89.1631L1577.26 60.6088L1538.59 89.1631L1478.79 119.334L1200.9 89.1631L1146.14 109.636L1099.78 89.1631L1035.66 109.636L981.856 60.6088L924.694 89.1631L877.378 43.9071L849.757 89.1631L769.537 13.7364L735.191 32.5931L725.104 0.267395L703.968 43.9071L629.752 89.1631L602.852 60.6088L573.31 89.1631H519.51L478.199 105.865L411.669 60.6088L369.637 105.865L322.562 121.489L30.9832 89.1631Z" fill="#218E53"/>
<path d="M16.8126 166.745L42.0315 108.02L116.968 125.26L16.8126 166.745Z" fill="#A5D63F"/>
<path d="M408.306 85.3918L330.008 140.346L393.175 170.516L408.306 85.3918Z" fill="#A5D63F"/>
<path d="M760.41 45.5234L622.307 119.334H774.581L760.41 45.5234Z" fill="#A5D63F"/>
<path d="M877.378 64.3801L837.028 136.574L882.422 100.477L877.378 64.3801Z" fill="#A5D63F"/>
<path d="M983.538 85.3918L943.188 108.02L965.044 181.83L983.538 85.3918Z" fill="#A5D63F"/>
<path d="M1621.94 170.516L1346.45 129.031H1509.77L1577.26 81.6204L1621.94 170.516Z" fill="#A5D63F"/>
<path d="M1850.11 168.361L1809.76 102.094L1908.23 58.9926L1850.11 168.361Z" fill="#A5D63F"/>
</svg>
