<svg width="1920" height="309" viewBox="0 0 1920 309" fill="none" xmlns="http://www.w3.org/2000/svg">
<path d="M33.149 28.9133L0 86.7399V308.304H1920V0L1890.69 86.7399L1859.23 28.9133L1730.47 113.139L1682.67 50.5983L1603.4 113.139L1515.01 72.2832L1428.53 149.281L1340.13 130.11L1268.31 149.281L1187.36 113.139L738.166 149.281L653.612 130.11L583.471 72.2832L480.42 130.11L408.598 113.139H336.775L294.498 86.7399L254.142 113.139L33.149 28.9133Z" fill="#A5D63F"/>
<path d="M105.933 149.595L48.7627 72.5975L196.012 132.624L105.933 149.595Z" fill="#218E53"/>
<path d="M549.601 137.652L589.956 106.225L608.452 137.652H549.601Z" fill="#218E53"/>
<path d="M1562.09 142.367L1530.86 108.739L1573.14 123.196L1562.09 142.367Z" fill="#218E53"/>
<path d="M1674.27 125.396L1683.63 89.2541L1701.89 125.396H1674.27Z" fill="#218E53"/>
<path d="M1859.47 92.7111L1852.5 47.1412L1876.52 80.1401L1859.47 92.7111Z" fill="#218E53"/>
</svg>
