<svg width="1920" height="248" viewBox="0 0 1920 248" fill="none" xmlns="http://www.w3.org/2000/svg">
<path d="M1889.02 88.8958L1920 105.597V247.292H0V22.628L121.291 88.8958L154.196 70.0391L182.777 88.8958L237.538 70.0391L276.207 88.8958L342.737 60.3414L381.406 88.8958L441.211 119.066L719.099 88.8958L773.86 109.369L820.215 88.8958L884.343 109.369L938.144 60.3414L995.306 88.8958L1042.62 43.6397L1070.24 88.8958L1150.46 13.4691L1184.81 32.3257L1194.9 0L1216.03 43.6397L1290.25 88.8958L1317.15 60.3414L1346.69 88.8958H1400.49L1441.8 105.597L1508.33 60.3414L1550.36 105.597L1597.44 121.221L1889.02 88.8958Z" fill="#3EBA77"/>
<path d="M1903.19 166.478L1877.97 107.752L1803.03 124.993L1903.19 166.478Z" fill="#26AA62"/>
<path d="M1511.69 85.1245L1589.99 140.078L1526.83 170.249L1511.69 85.1245Z" fill="#26AA62"/>
<path d="M1159.59 45.256L1297.69 119.066H1145.42L1159.59 45.256Z" fill="#26AA62"/>
<path d="M1042.62 64.1127L1082.97 136.307L1037.58 100.21L1042.62 64.1127Z" fill="#26AA62"/>
<path d="M936.462 85.1245L976.812 107.753L954.956 181.563L936.462 85.1245Z" fill="#26AA62"/>
<path d="M298.063 170.249L573.55 128.764H410.228L342.737 81.353L298.063 170.249Z" fill="#26AA62"/>
<path d="M69.8927 168.094L110.243 101.826L11.7691 58.7252L69.8927 168.094Z" fill="#26AA62"/>
</svg>
