<svg width="40" height="27" viewBox="0 0 40 27" fill="none" xmlns="http://www.w3.org/2000/svg">
<path d="M38.7213 13.4368C38.7213 16.635 36.7768 19.6529 33.3808 21.9169C29.9918 24.1763 25.2523 25.6062 19.9672 25.6062C14.6822 25.6062 9.94269 24.1763 6.55368 21.9169C3.15767 19.6529 1.21313 16.635 1.21313 13.4368C1.21313 10.2385 3.15767 7.22068 6.55368 4.95667C9.94269 2.69733 14.6822 1.2674 19.9672 1.2674C25.2523 1.2674 29.9918 2.69733 33.3808 4.95667C36.7768 7.22068 38.7213 10.2385 38.7213 13.4368Z" fill="#CEFAFF" stroke="#37759C" stroke-width="2"/>
<path d="M33.836 15.2552C34.4948 17.7141 31.8966 20.5467 28.0326 21.5821C24.1686 22.6175 20.5021 21.4634 19.8432 19.0045C19.1844 16.5456 21.7826 13.713 25.6466 12.6776C29.5106 11.6423 33.1771 12.7963 33.836 15.2552Z" fill="white"/>
</svg>
