<svg width="280" height="280" viewBox="0 0 280 280" fill="none" xmlns="http://www.w3.org/2000/svg">
<path d="M280 140C280 217.32 217.32 280 140 280C62.6801 280 0 217.32 0 140C0 62.6801 62.6801 0 140 0C217.32 0 280 62.6801 280 140Z" fill="#F0E261"/>
<path fill-rule="evenodd" clip-rule="evenodd" d="M140 280C217.32 280 280 217.32 280 140C280 133.548 279.563 127.198 278.718 120.977C276.076 104.96 270.555 89.1381 261.958 74.2482C254.455 61.252 251.385 55.9353 250.425 56.2922C246.486 57.7568 278.055 154.727 184.613 208.676C84.0363 263.992 15.45 190.666 11.9659 193.639C11.1051 194.373 14.2177 199.764 21.8027 212.902C28.3903 224.312 36.3546 234.431 45.3648 243.172C70.2836 266.041 103.512 280 140 280Z" fill="#ECDC51"/>
</svg>
