<svg width="1442" height="375" viewBox="0 0 1442 375" fill="none" xmlns="http://www.w3.org/2000/svg">
<path d="M284.25 236.763C283.484 231.199 287.808 226.239 293.424 226.239V226.239C298.304 226.239 302.346 230.025 302.666 234.894L306.862 298.803C306.901 299.408 306.996 300.009 307.145 300.598L320.844 354.799C322.441 361.117 317.666 367.25 311.149 367.25H276.604C270.123 367.25 265.354 361.18 266.888 354.883L287.918 268.534C288.215 267.314 288.28 266.048 288.108 264.804L284.25 236.763Z" fill="url(#paint0_linear)"/>
<mask id="path-2-inside-1" fill="white">
<path fill-rule="evenodd" clip-rule="evenodd" d="M326.412 207.146L326.473 207.021C326.504 206.956 326.535 206.892 326.566 206.827C326.67 206.978 326.775 207.128 326.881 207.278C326.725 207.234 326.569 207.19 326.412 207.146ZM193 201.07C193 225.237 215.089 244.897 242.59 245.479C248.508 260.8 272.223 272.253 300.577 272.253C333.388 272.253 359.986 256.917 359.986 238C359.986 234.079 358.843 230.312 356.74 226.803C361.013 227.822 365.512 228.366 370.155 228.366C398.236 228.366 421 208.477 421 183.943C421 162.433 403.501 144.494 380.263 140.399C372.998 123.62 354.439 111.69 332.69 111.69C324.956 111.69 317.626 113.199 311.063 115.897C303.112 109.172 293.631 105.267 283.451 105.267C272.264 105.267 261.921 109.983 253.525 117.974C250.59 117.365 247.528 117.042 244.38 117.042C222.507 117.042 204.775 132.617 204.775 151.831C204.775 157.796 206.484 163.411 209.496 168.317C199.357 176.438 193 188.106 193 201.07Z"/>
</mask>
<path fill-rule="evenodd" clip-rule="evenodd" d="M326.412 207.146L326.473 207.021C326.504 206.956 326.535 206.892 326.566 206.827C326.67 206.978 326.775 207.128 326.881 207.278C326.725 207.234 326.569 207.19 326.412 207.146ZM193 201.07C193 225.237 215.089 244.897 242.59 245.479C248.508 260.8 272.223 272.253 300.577 272.253C333.388 272.253 359.986 256.917 359.986 238C359.986 234.079 358.843 230.312 356.74 226.803C361.013 227.822 365.512 228.366 370.155 228.366C398.236 228.366 421 208.477 421 183.943C421 162.433 403.501 144.494 380.263 140.399C372.998 123.62 354.439 111.69 332.69 111.69C324.956 111.69 317.626 113.199 311.063 115.897C303.112 109.172 293.631 105.267 283.451 105.267C272.264 105.267 261.921 109.983 253.525 117.974C250.59 117.365 247.528 117.042 244.38 117.042C222.507 117.042 204.775 132.617 204.775 151.831C204.775 157.796 206.484 163.411 209.496 168.317C199.357 176.438 193 188.106 193 201.07Z" fill="#76C017"/>
<path d="M326.473 207.021L330.971 209.203L330.973 209.198L326.473 207.021ZM326.412 207.146L321.913 204.964L319.299 210.353L325.069 211.962L326.412 207.146ZM326.566 206.827L330.683 203.989L325.79 196.89L322.058 204.663L326.566 206.827ZM326.881 207.278L325.51 212.087L339.17 215.982L330.962 204.389L326.881 207.278ZM242.59 245.479L247.254 243.678L246.046 240.552L242.695 240.481L242.59 245.479ZM356.74 226.803L357.899 221.94L346.342 219.185L352.451 229.375L356.74 226.803ZM380.263 140.399L375.674 142.385L376.744 144.856L379.395 145.323L380.263 140.399ZM311.063 115.897L307.834 119.715L310.154 121.677L312.965 120.522L311.063 115.897ZM253.525 117.974L252.509 122.87L255.074 123.402L256.972 121.596L253.525 117.974ZM209.496 168.317L212.621 172.22L216.065 169.462L213.757 165.702L209.496 168.317ZM321.974 204.839L321.913 204.964L330.911 209.328L330.971 209.203L321.974 204.839ZM322.058 204.663C322.03 204.723 322.001 204.783 321.972 204.843L330.973 209.198C331.007 209.129 331.04 209.06 331.074 208.991L322.058 204.663ZM330.962 204.389C330.868 204.256 330.775 204.123 330.683 203.989L322.449 209.664C322.565 209.833 322.682 210 322.801 210.167L330.962 204.389ZM325.069 211.962C325.216 212.003 325.364 212.045 325.51 212.087L328.253 202.47C328.087 202.423 327.921 202.376 327.755 202.33L325.069 211.962ZM242.695 240.481C217.272 239.942 198 221.918 198 201.07H188C188 228.557 212.905 249.852 242.484 250.478L242.695 240.481ZM300.577 267.253C287.038 267.253 274.758 264.513 265.289 260.083C255.714 255.603 249.573 249.681 247.254 243.678L237.925 247.281C241.525 256.598 250.2 264.064 261.051 269.14C272.008 274.267 285.762 277.253 300.577 277.253V267.253ZM354.986 238C354.986 244.913 350.085 252.125 340.088 257.889C330.225 263.576 316.266 267.253 300.577 267.253V277.253C317.699 277.253 333.445 273.263 345.083 266.552C356.588 259.919 364.986 250.005 364.986 238H354.986ZM352.451 229.375C354.145 232.199 354.986 235.087 354.986 238H364.986C364.986 233.071 363.542 228.425 361.028 224.232L352.451 229.375ZM370.155 223.366C365.902 223.366 361.793 222.868 357.899 221.94L355.58 231.667C360.234 232.776 365.121 233.366 370.155 233.366V223.366ZM416 183.943C416 205.103 396.13 223.366 370.155 223.366V233.366C400.342 233.366 426 211.852 426 183.943H416ZM379.395 145.323C400.777 149.091 416 165.364 416 183.943H426C426 159.503 406.226 139.897 381.13 135.475L379.395 145.323ZM332.69 116.69C352.691 116.69 369.295 127.651 375.674 142.385L384.851 138.412C376.702 119.589 356.187 106.69 332.69 106.69V116.69ZM312.965 120.522C318.923 118.071 325.607 116.69 332.69 116.69V106.69C324.305 106.69 316.329 108.326 309.161 111.273L312.965 120.522ZM283.451 110.267C292.294 110.267 300.66 113.647 307.834 119.715L314.292 112.08C305.563 104.697 294.967 100.267 283.451 100.267V110.267ZM256.972 121.596C264.589 114.346 273.741 110.267 283.451 110.267V100.267C270.787 100.267 259.253 105.62 250.078 114.352L256.972 121.596ZM244.38 122.042C247.186 122.042 249.907 122.329 252.509 122.87L254.542 113.078C251.272 112.4 247.87 112.042 244.38 112.042V122.042ZM209.775 151.831C209.775 135.968 224.639 122.042 244.38 122.042V112.042C220.374 112.042 199.775 129.267 199.775 151.831H209.775ZM213.757 165.702C211.199 161.535 209.775 156.819 209.775 151.831H199.775C199.775 158.773 201.769 165.286 205.234 170.933L213.757 165.702ZM198 201.07C198 189.82 203.505 179.522 212.621 172.22L206.37 164.415C195.209 173.354 188 186.391 188 201.07H198Z" fill="#1A7C47" mask="url(#path-2-inside-1)"/>
<path d="M218.233 196.182C214.671 224.384 235.551 232.424 246.436 232.919C254.97 227.6 266.919 213.771 246.436 201.006C225.952 188.241 226.026 170.454 228.624 163.156C226.645 162.414 221.796 167.98 218.233 196.182Z" fill="#A3E054"/>
<path d="M280.929 142.194C265.632 146.951 266.532 159.778 268.895 165.597C273.669 168.819 283.621 171.831 285.235 158.102C286.849 144.373 295.975 140.234 300.336 139.881C300.24 138.67 296.225 137.437 280.929 142.194Z" fill="#1A7C47"/>
<path d="M320.919 259.255C341.806 256.455 343.463 239.621 341.681 231.554C336.199 226.323 323.956 220.225 318.838 237.675C313.721 255.125 300.974 258.483 295.24 257.98C295.098 259.572 300.033 262.055 320.919 259.255Z" fill="#1A7C47"/>
<path d="M385.589 195.319C403.935 181.089 396.52 164.386 390.519 157.813C382.518 155.956 367.629 157.042 372.087 176.245C376.545 195.448 366.229 205.678 360.514 208.393C361.228 209.965 367.244 209.55 385.589 195.319Z" fill="#A3E054"/>
<path d="M122.564 174.631C121.737 168.623 126.406 163.267 132.47 163.267H137.635C142.904 163.267 147.268 167.355 147.614 172.612L153.44 261.357C153.48 261.963 153.575 262.564 153.724 263.152L173.353 340.817C174.95 347.135 170.174 353.267 163.658 353.267H108.228C101.747 353.267 96.9782 347.198 98.5117 340.901L128.05 219.614C128.347 218.394 128.412 217.129 128.241 215.885L122.564 174.631Z" fill="url(#paint1_linear)"/>
<mask id="path-9-inside-2" fill="white">
<path fill-rule="evenodd" clip-rule="evenodd" d="M179.762 137.54C179.831 137.397 179.9 137.254 179.969 137.11C180.11 137.314 180.251 137.517 180.394 137.719C180.184 137.659 179.973 137.599 179.762 137.54ZM0 129.354C0 161.917 29.7628 188.407 66.8179 189.192C74.7923 209.835 106.746 225.267 144.952 225.267C189.161 225.267 225 204.604 225 179.114C225 173.831 223.461 168.755 220.626 164.027C226.385 165.4 232.445 166.133 238.702 166.133C276.539 166.133 307.212 139.334 307.212 106.277C307.212 77.2938 283.633 53.1219 252.321 47.604C242.533 24.9962 217.526 8.92124 188.221 8.92124C177.8 8.92124 167.923 10.9539 159.08 14.5903C148.367 5.52899 135.592 0.267395 121.875 0.267395C106.802 0.267395 92.8658 6.62109 81.5528 17.3885C77.5974 16.5673 73.4718 16.1328 69.2308 16.1328C39.7579 16.1328 15.8654 37.1194 15.8654 63.0078C15.8654 71.0455 18.1685 78.6107 22.2267 85.222C8.56524 96.1642 0 111.885 0 129.354Z"/>
</mask>
<path fill-rule="evenodd" clip-rule="evenodd" d="M179.762 137.54C179.831 137.397 179.9 137.254 179.969 137.11C180.11 137.314 180.251 137.517 180.394 137.719C180.184 137.659 179.973 137.599 179.762 137.54ZM0 129.354C0 161.917 29.7628 188.407 66.8179 189.192C74.7923 209.835 106.746 225.267 144.952 225.267C189.161 225.267 225 204.604 225 179.114C225 173.831 223.461 168.755 220.626 164.027C226.385 165.4 232.445 166.133 238.702 166.133C276.539 166.133 307.212 139.334 307.212 106.277C307.212 77.2938 283.633 53.1219 252.321 47.604C242.533 24.9962 217.526 8.92124 188.221 8.92124C177.8 8.92124 167.923 10.9539 159.08 14.5903C148.367 5.52899 135.592 0.267395 121.875 0.267395C106.802 0.267395 92.8658 6.62109 81.5528 17.3885C77.5974 16.5673 73.4718 16.1328 69.2308 16.1328C39.7579 16.1328 15.8654 37.1194 15.8654 63.0078C15.8654 71.0455 18.1685 78.6107 22.2267 85.222C8.56524 96.1642 0 111.885 0 129.354Z" fill="#76C017"/>
<path d="M179.969 137.11L184.086 134.273L179.194 127.174L175.462 134.946L179.969 137.11ZM179.762 137.54L175.265 135.354L172.643 140.746L178.419 142.357L179.762 137.54ZM180.394 137.719L179.023 142.527L192.682 146.422L184.475 134.83L180.394 137.719ZM66.8179 189.192L71.482 187.39L70.2744 184.264L66.9238 184.193L66.8179 189.192ZM220.626 164.027L221.785 159.164L210.228 156.409L216.338 166.599L220.626 164.027ZM252.321 47.604L247.733 49.5905L248.802 52.0609L251.453 52.5281L252.321 47.604ZM159.08 14.5903L155.852 18.4079L158.172 20.3702L160.982 19.2145L159.08 14.5903ZM81.5528 17.3885L80.5364 22.2841L83.1019 22.8168L84.9999 21.0103L81.5528 17.3885ZM22.2267 85.222L25.3524 89.1245L28.7959 86.3664L26.4879 82.6063L22.2267 85.222ZM175.462 134.946C175.397 135.083 175.331 135.218 175.265 135.354L184.258 139.727C184.332 139.576 184.404 139.426 184.477 139.274L175.462 134.946ZM184.475 134.83C184.344 134.645 184.215 134.459 184.086 134.273L175.852 139.948C176.005 140.169 176.159 140.389 176.313 140.608L184.475 134.83ZM178.419 142.357C178.621 142.413 178.822 142.47 179.023 142.527L181.766 132.911C181.546 132.848 181.326 132.786 181.105 132.724L178.419 142.357ZM66.9238 184.193C31.9465 183.452 5 158.597 5 129.354H-5C-5 165.237 27.5791 193.362 66.7121 194.191L66.9238 184.193ZM144.952 220.267C126.487 220.267 109.684 216.532 96.6672 210.442C83.544 204.302 74.8292 196.055 71.482 187.39L62.1538 190.994C66.7811 202.972 78.0305 212.763 92.4293 219.5C106.934 226.286 125.211 230.267 144.952 230.267V220.267ZM220 179.114C220 189.313 212.789 199.5 199.057 207.418C185.458 215.258 166.34 220.267 144.952 220.267V230.267C167.773 230.267 188.679 224.945 204.052 216.081C219.292 207.294 230 194.405 230 179.114H220ZM216.338 166.599C218.762 170.642 220 174.839 220 179.114H230C230 172.822 228.159 166.868 224.914 161.456L216.338 166.599ZM238.702 161.133C232.836 161.133 227.164 160.446 221.785 159.164L219.467 168.891C225.605 170.354 232.055 171.133 238.702 171.133V161.133ZM302.212 106.277C302.212 135.96 274.433 161.133 238.702 161.133V171.133C278.645 171.133 312.212 142.709 312.212 106.277H302.212ZM251.453 52.5281C280.909 57.7188 302.212 80.2244 302.212 106.277H312.212C312.212 74.3632 286.358 48.5249 253.189 42.6798L251.453 52.5281ZM188.221 13.9212C215.778 13.9212 238.83 29.0272 247.733 49.5905L256.91 45.6174C246.236 20.9652 219.274 3.92124 188.221 3.92124V13.9212ZM160.982 19.2145C169.22 15.8268 178.451 13.9212 188.221 13.9212V3.92124C177.149 3.92124 166.626 6.08109 157.179 9.96598L160.982 19.2145ZM121.875 5.2674C134.255 5.2674 145.915 10.0041 155.852 18.4079L162.309 10.7726C150.818 1.05391 136.928 -4.7326 121.875 -4.7326V5.2674ZM84.9999 21.0103C95.5339 10.9843 108.279 5.2674 121.875 5.2674V-4.7326C105.325 -4.7326 90.1976 2.25789 78.1057 13.7668L84.9999 21.0103ZM69.2308 21.1328C73.13 21.1328 76.9149 21.5323 80.5364 22.2841L82.5692 12.4929C78.2798 11.6024 73.8137 11.1328 69.2308 11.1328V21.1328ZM20.8654 63.0078C20.8654 40.4703 41.8904 21.1328 69.2308 21.1328V11.1328C37.6253 11.1328 10.8654 33.7685 10.8654 63.0078H20.8654ZM26.4879 82.6063C22.8839 76.7348 20.8654 70.0683 20.8654 63.0078H10.8654C10.8654 72.0226 13.4531 80.4865 17.9654 87.8376L26.4879 82.6063ZM5 129.354C5 113.6 12.713 99.2482 25.3524 89.1245L19.1009 81.3194C4.41749 93.0803 -5 110.17 -5 129.354H5Z" fill="#1A7C47" mask="url(#path-9-inside-2)"/>
<path d="M34 122.767C29.2 160.767 57.3333 171.601 72 172.267C83.5 165.101 99.6 146.467 72 129.267C44.4 112.067 44.5 88.1007 48 78.2674C45.3333 77.2674 38.8 84.7674 34 122.767Z" fill="#A3E054"/>
<path d="M118.477 50.0229C97.8658 56.4323 99.0789 73.7157 102.262 81.5563C108.695 85.8982 122.104 89.9571 124.279 71.4579C126.454 52.9587 138.75 47.3826 144.626 46.907C144.498 45.2751 139.087 43.6135 118.477 50.0229Z" fill="#1A7C47"/>
<path d="M172.361 207.754C200.504 203.981 202.737 181.298 200.336 170.429C192.949 163.381 176.452 155.163 169.557 178.676C162.661 202.189 145.486 206.712 137.761 206.035C137.568 208.18 144.219 211.526 172.361 207.754Z" fill="#1A7C47"/>
<path d="M259.499 121.605C284.218 102.43 274.226 79.9249 266.141 71.069C255.36 68.5663 235.299 70.0294 241.306 95.904C247.312 121.779 233.412 135.563 225.712 139.221C226.674 141.338 234.779 140.78 259.499 121.605Z" fill="#A3E054"/>
<path d="M1305.25 243.763C1304.48 238.199 1308.81 233.239 1314.42 233.239V233.239C1319.3 233.239 1323.35 237.025 1323.67 241.894L1327.86 305.803C1327.9 306.408 1328 307.009 1328.15 307.598L1341.84 361.799C1343.44 368.117 1338.67 374.25 1332.15 374.25H1297.6C1291.12 374.25 1286.35 368.18 1287.89 361.883L1308.92 275.534C1309.21 274.314 1309.28 273.048 1309.11 271.804L1305.25 243.763Z" fill="url(#paint2_linear)"/>
<mask id="path-16-inside-3" fill="white">
<path fill-rule="evenodd" clip-rule="evenodd" d="M1347.41 214.146L1347.47 214.021C1347.5 213.956 1347.53 213.892 1347.57 213.827C1347.67 213.978 1347.78 214.128 1347.88 214.278C1347.73 214.234 1347.57 214.19 1347.41 214.146ZM1214 208.07C1214 232.237 1236.09 251.897 1263.59 252.479C1269.51 267.8 1293.22 279.253 1321.58 279.253C1354.39 279.253 1380.99 263.917 1380.99 245C1380.99 241.079 1379.84 237.312 1377.74 233.803C1382.01 234.822 1386.51 235.366 1391.15 235.366C1419.24 235.366 1442 215.477 1442 190.943C1442 169.433 1424.5 151.494 1401.26 147.399C1394 130.62 1375.44 118.69 1353.69 118.69C1345.96 118.69 1338.63 120.199 1332.06 122.897C1324.11 116.172 1314.63 112.267 1304.45 112.267C1293.26 112.267 1282.92 116.983 1274.53 124.974C1271.59 124.365 1268.53 124.042 1265.38 124.042C1243.51 124.042 1225.77 139.617 1225.77 158.831C1225.77 164.796 1227.48 170.411 1230.5 175.317C1220.36 183.438 1214 195.106 1214 208.07Z"/>
</mask>
<path fill-rule="evenodd" clip-rule="evenodd" d="M1347.41 214.146L1347.47 214.021C1347.5 213.956 1347.53 213.892 1347.57 213.827C1347.67 213.978 1347.78 214.128 1347.88 214.278C1347.73 214.234 1347.57 214.19 1347.41 214.146ZM1214 208.07C1214 232.237 1236.09 251.897 1263.59 252.479C1269.51 267.8 1293.22 279.253 1321.58 279.253C1354.39 279.253 1380.99 263.917 1380.99 245C1380.99 241.079 1379.84 237.312 1377.74 233.803C1382.01 234.822 1386.51 235.366 1391.15 235.366C1419.24 235.366 1442 215.477 1442 190.943C1442 169.433 1424.5 151.494 1401.26 147.399C1394 130.62 1375.44 118.69 1353.69 118.69C1345.96 118.69 1338.63 120.199 1332.06 122.897C1324.11 116.172 1314.63 112.267 1304.45 112.267C1293.26 112.267 1282.92 116.983 1274.53 124.974C1271.59 124.365 1268.53 124.042 1265.38 124.042C1243.51 124.042 1225.77 139.617 1225.77 158.831C1225.77 164.796 1227.48 170.411 1230.5 175.317C1220.36 183.438 1214 195.106 1214 208.07Z" fill="#76C017"/>
<path d="M1347.47 214.021L1351.97 216.203L1351.97 216.198L1347.47 214.021ZM1347.41 214.146L1342.91 211.964L1340.3 217.353L1346.07 218.962L1347.41 214.146ZM1347.57 213.827L1351.68 210.989L1346.79 203.89L1343.06 211.663L1347.57 213.827ZM1347.88 214.278L1346.51 219.087L1360.17 222.982L1351.96 211.389L1347.88 214.278ZM1263.59 252.479L1268.25 250.678L1267.05 247.552L1263.7 247.481L1263.59 252.479ZM1377.74 233.803L1378.9 228.94L1367.34 226.185L1373.45 236.375L1377.74 233.803ZM1401.26 147.399L1396.67 149.385L1397.74 151.856L1400.39 152.323L1401.26 147.399ZM1332.06 122.897L1328.83 126.715L1331.15 128.677L1333.96 127.522L1332.06 122.897ZM1274.53 124.974L1273.51 129.87L1276.07 130.402L1277.97 128.596L1274.53 124.974ZM1230.5 175.317L1233.62 179.22L1237.07 176.462L1234.76 172.702L1230.5 175.317ZM1342.97 211.839L1342.91 211.964L1351.91 216.328L1351.97 216.203L1342.97 211.839ZM1343.06 211.663C1343.03 211.723 1343 211.783 1342.97 211.843L1351.97 216.198C1352.01 216.129 1352.04 216.06 1352.07 215.991L1343.06 211.663ZM1351.96 211.389C1351.87 211.256 1351.78 211.123 1351.68 210.989L1343.45 216.664C1343.57 216.833 1343.68 217 1343.8 217.167L1351.96 211.389ZM1346.07 218.962C1346.22 219.003 1346.36 219.045 1346.51 219.087L1349.25 209.47C1349.09 209.423 1348.92 209.376 1348.75 209.33L1346.07 218.962ZM1263.7 247.481C1238.27 246.942 1219 228.918 1219 208.07H1209C1209 235.557 1233.9 256.852 1263.48 257.478L1263.7 247.481ZM1321.58 274.253C1308.04 274.253 1295.76 271.513 1286.29 267.083C1276.71 262.603 1270.57 256.681 1268.25 250.678L1258.93 254.281C1262.52 263.598 1271.2 271.064 1282.05 276.14C1293.01 281.267 1306.76 284.253 1321.58 284.253V274.253ZM1375.99 245C1375.99 251.913 1371.08 259.125 1361.09 264.889C1351.22 270.576 1337.27 274.253 1321.58 274.253V284.253C1338.7 284.253 1354.44 280.263 1366.08 273.552C1377.59 266.919 1385.99 257.005 1385.99 245H1375.99ZM1373.45 236.375C1375.15 239.199 1375.99 242.087 1375.99 245H1385.99C1385.99 240.071 1384.54 235.425 1382.03 231.232L1373.45 236.375ZM1391.15 230.366C1386.9 230.366 1382.79 229.868 1378.9 228.94L1376.58 238.667C1381.23 239.776 1386.12 240.366 1391.15 240.366V230.366ZM1437 190.943C1437 212.103 1417.13 230.366 1391.15 230.366V240.366C1421.34 240.366 1447 218.852 1447 190.943H1437ZM1400.39 152.323C1421.78 156.091 1437 172.364 1437 190.943H1447C1447 166.503 1427.23 146.897 1402.13 142.475L1400.39 152.323ZM1353.69 123.69C1373.69 123.69 1390.29 134.651 1396.67 149.385L1405.85 145.412C1397.7 126.589 1377.19 113.69 1353.69 113.69V123.69ZM1333.96 127.522C1339.92 125.071 1346.61 123.69 1353.69 123.69V113.69C1345.31 113.69 1337.33 115.326 1330.16 118.273L1333.96 127.522ZM1304.45 117.267C1313.29 117.267 1321.66 120.647 1328.83 126.715L1335.29 119.08C1326.56 111.697 1315.97 107.267 1304.45 107.267V117.267ZM1277.97 128.596C1285.59 121.346 1294.74 117.267 1304.45 117.267V107.267C1291.79 107.267 1280.25 112.62 1271.08 121.352L1277.97 128.596ZM1265.38 129.042C1268.19 129.042 1270.91 129.329 1273.51 129.87L1275.54 120.078C1272.27 119.4 1268.87 119.042 1265.38 119.042V129.042ZM1230.77 158.831C1230.77 142.968 1245.64 129.042 1265.38 129.042V119.042C1241.37 119.042 1220.77 136.267 1220.77 158.831H1230.77ZM1234.76 172.702C1232.2 168.535 1230.77 163.819 1230.77 158.831H1220.77C1220.77 165.773 1222.77 172.286 1226.23 177.933L1234.76 172.702ZM1219 208.07C1219 196.82 1224.5 186.522 1233.62 179.22L1227.37 171.415C1216.21 180.354 1209 193.391 1209 208.07H1219Z" fill="#1A7C47" mask="url(#path-16-inside-3)"/>
<path d="M1239.23 203.182C1235.67 231.384 1256.55 239.424 1267.44 239.919C1275.97 234.6 1287.92 220.771 1267.44 208.006C1246.95 195.241 1247.03 177.454 1249.62 170.156C1247.64 169.414 1242.8 174.98 1239.23 203.182Z" fill="#A3E054"/>
<path d="M1301.93 149.194C1286.63 153.951 1287.53 166.778 1289.89 172.597C1294.67 175.819 1304.62 178.831 1306.24 165.102C1307.85 151.373 1316.97 147.234 1321.34 146.881C1321.24 145.67 1317.23 144.437 1301.93 149.194Z" fill="#1A7C47"/>
<path d="M1341.92 266.255C1362.81 263.455 1364.46 246.621 1362.68 238.554C1357.2 233.323 1344.96 227.225 1339.84 244.675C1334.72 262.125 1321.97 265.483 1316.24 264.98C1316.1 266.572 1321.03 269.055 1341.92 266.255Z" fill="#1A7C47"/>
<path d="M1406.59 202.319C1424.94 188.089 1417.52 171.386 1411.52 164.813C1403.52 162.956 1388.63 164.042 1393.09 183.245C1397.55 202.448 1387.23 212.678 1381.51 215.393C1382.23 216.965 1388.24 216.55 1406.59 202.319Z" fill="#A3E054"/>
<path d="M1143.56 181.631C1142.74 175.623 1147.41 170.267 1153.47 170.267H1158.64C1163.9 170.267 1168.27 174.355 1168.61 179.612L1174.44 268.357C1174.48 268.963 1174.57 269.564 1174.72 270.152L1194.35 347.817C1195.95 354.135 1191.17 360.267 1184.66 360.267H1129.23C1122.75 360.267 1117.98 354.198 1119.51 347.901L1149.05 226.614C1149.35 225.394 1149.41 224.129 1149.24 222.885L1143.56 181.631Z" fill="url(#paint3_linear)"/>
<mask id="path-23-inside-4" fill="white">
<path fill-rule="evenodd" clip-rule="evenodd" d="M1200.76 144.54C1200.83 144.397 1200.9 144.254 1200.97 144.11C1201.11 144.314 1201.25 144.517 1201.39 144.719C1201.18 144.659 1200.97 144.599 1200.76 144.54ZM1021 136.354C1021 168.917 1050.76 195.407 1087.82 196.192C1095.79 216.835 1127.75 232.267 1165.95 232.267C1210.16 232.267 1246 211.604 1246 186.114C1246 180.831 1244.46 175.755 1241.63 171.027C1247.38 172.4 1253.45 173.133 1259.7 173.133C1297.54 173.133 1328.21 146.334 1328.21 113.277C1328.21 84.2938 1304.63 60.1219 1273.32 54.604C1263.53 31.9962 1238.53 15.9212 1209.22 15.9212C1198.8 15.9212 1188.92 17.9539 1180.08 21.5903C1169.37 12.529 1156.59 7.2674 1142.88 7.2674C1127.8 7.2674 1113.87 13.6211 1102.55 24.3885C1098.6 23.5673 1094.47 23.1328 1090.23 23.1328C1060.76 23.1328 1036.87 44.1194 1036.87 70.0078C1036.87 78.0455 1039.17 85.6107 1043.23 92.222C1029.57 103.164 1021 118.885 1021 136.354Z"/>
</mask>
<path fill-rule="evenodd" clip-rule="evenodd" d="M1200.76 144.54C1200.83 144.397 1200.9 144.254 1200.97 144.11C1201.11 144.314 1201.25 144.517 1201.39 144.719C1201.18 144.659 1200.97 144.599 1200.76 144.54ZM1021 136.354C1021 168.917 1050.76 195.407 1087.82 196.192C1095.79 216.835 1127.75 232.267 1165.95 232.267C1210.16 232.267 1246 211.604 1246 186.114C1246 180.831 1244.46 175.755 1241.63 171.027C1247.38 172.4 1253.45 173.133 1259.7 173.133C1297.54 173.133 1328.21 146.334 1328.21 113.277C1328.21 84.2938 1304.63 60.1219 1273.32 54.604C1263.53 31.9962 1238.53 15.9212 1209.22 15.9212C1198.8 15.9212 1188.92 17.9539 1180.08 21.5903C1169.37 12.529 1156.59 7.2674 1142.88 7.2674C1127.8 7.2674 1113.87 13.6211 1102.55 24.3885C1098.6 23.5673 1094.47 23.1328 1090.23 23.1328C1060.76 23.1328 1036.87 44.1194 1036.87 70.0078C1036.87 78.0455 1039.17 85.6107 1043.23 92.222C1029.57 103.164 1021 118.885 1021 136.354Z" fill="#76C017"/>
<path d="M1200.97 144.11L1205.09 141.273L1200.19 134.174L1196.46 141.946L1200.97 144.11ZM1200.76 144.54L1196.26 142.354L1193.64 147.746L1199.42 149.357L1200.76 144.54ZM1201.39 144.719L1200.02 149.527L1213.68 153.422L1205.48 141.83L1201.39 144.719ZM1087.82 196.192L1092.48 194.39L1091.27 191.264L1087.92 191.193L1087.82 196.192ZM1241.63 171.027L1242.79 166.164L1231.23 163.409L1237.34 173.599L1241.63 171.027ZM1273.32 54.604L1268.73 56.5905L1269.8 59.0609L1272.45 59.5281L1273.32 54.604ZM1180.08 21.5903L1176.85 25.4079L1179.17 27.3702L1181.98 26.2145L1180.08 21.5903ZM1102.55 24.3885L1101.54 29.2841L1104.1 29.8168L1106 28.0103L1102.55 24.3885ZM1043.23 92.222L1046.35 96.1245L1049.8 93.3664L1047.49 89.6063L1043.23 92.222ZM1196.46 141.946C1196.4 142.083 1196.33 142.218 1196.26 142.354L1205.26 146.727C1205.33 146.576 1205.4 146.426 1205.48 146.274L1196.46 141.946ZM1205.48 141.83C1205.34 141.645 1205.21 141.459 1205.09 141.273L1196.85 146.948C1197 147.169 1197.16 147.389 1197.31 147.608L1205.48 141.83ZM1199.42 149.357C1199.62 149.413 1199.82 149.47 1200.02 149.527L1202.77 139.911C1202.55 139.848 1202.33 139.786 1202.1 139.724L1199.42 149.357ZM1087.92 191.193C1052.95 190.452 1026 165.597 1026 136.354H1016C1016 172.237 1048.58 200.362 1087.71 201.191L1087.92 191.193ZM1165.95 227.267C1147.49 227.267 1130.68 223.532 1117.67 217.442C1104.54 211.302 1095.83 203.055 1092.48 194.39L1083.15 197.994C1087.78 209.972 1099.03 219.763 1113.43 226.5C1127.93 233.286 1146.21 237.267 1165.95 237.267V227.267ZM1241 186.114C1241 196.313 1233.79 206.5 1220.06 214.418C1206.46 222.258 1187.34 227.267 1165.95 227.267V237.267C1188.77 237.267 1209.68 231.945 1225.05 223.081C1240.29 214.294 1251 201.405 1251 186.114H1241ZM1237.34 173.599C1239.76 177.642 1241 181.839 1241 186.114H1251C1251 179.822 1249.16 173.868 1245.91 168.456L1237.34 173.599ZM1259.7 168.133C1253.84 168.133 1248.16 167.446 1242.79 166.164L1240.47 175.891C1246.6 177.354 1253.05 178.133 1259.7 178.133V168.133ZM1323.21 113.277C1323.21 142.96 1295.43 168.133 1259.7 168.133V178.133C1299.64 178.133 1333.21 149.709 1333.21 113.277H1323.21ZM1272.45 59.5281C1301.91 64.7188 1323.21 87.2244 1323.21 113.277H1333.21C1333.21 81.3632 1307.36 55.5249 1274.19 49.6798L1272.45 59.5281ZM1209.22 20.9212C1236.78 20.9212 1259.83 36.0272 1268.73 56.5905L1277.91 52.6174C1267.24 27.9652 1240.27 10.9212 1209.22 10.9212V20.9212ZM1181.98 26.2145C1190.22 22.8268 1199.45 20.9212 1209.22 20.9212V10.9212C1198.15 10.9212 1187.63 13.0811 1178.18 16.966L1181.98 26.2145ZM1142.88 12.2674C1155.26 12.2674 1166.92 17.0041 1176.85 25.4079L1183.31 17.7726C1171.82 8.05391 1157.93 2.2674 1142.88 2.2674V12.2674ZM1106 28.0103C1116.53 17.9843 1129.28 12.2674 1142.88 12.2674V2.2674C1126.32 2.2674 1111.2 9.25789 1099.11 20.7668L1106 28.0103ZM1090.23 28.1328C1094.13 28.1328 1097.91 28.5323 1101.54 29.2841L1103.57 19.4929C1099.28 18.6024 1094.81 18.1328 1090.23 18.1328V28.1328ZM1041.87 70.0078C1041.87 47.4703 1062.89 28.1328 1090.23 28.1328V18.1328C1058.63 18.1328 1031.87 40.7685 1031.87 70.0078H1041.87ZM1047.49 89.6063C1043.88 83.7348 1041.87 77.0683 1041.87 70.0078H1031.87C1031.87 79.0226 1034.45 87.4865 1038.97 94.8376L1047.49 89.6063ZM1026 136.354C1026 120.6 1033.71 106.248 1046.35 96.1245L1040.1 88.3194C1025.42 100.08 1016 117.17 1016 136.354H1026Z" fill="#1A7C47" mask="url(#path-23-inside-4)"/>
<path d="M1055 129.767C1050.2 167.767 1078.33 178.601 1093 179.267C1104.5 172.101 1120.6 153.467 1093 136.267C1065.4 119.067 1065.5 95.1007 1069 85.2674C1066.33 84.2674 1059.8 91.7674 1055 129.767Z" fill="#A3E054"/>
<path d="M1139.48 57.0229C1118.87 63.4323 1120.08 80.7157 1123.26 88.5563C1129.69 92.8982 1143.1 96.9571 1145.28 78.4579C1147.45 59.9587 1159.75 54.3826 1165.63 53.907C1165.5 52.2751 1160.09 50.6135 1139.48 57.0229Z" fill="#1A7C47"/>
<path d="M1193.36 214.754C1221.5 210.981 1223.74 188.298 1221.34 177.429C1213.95 170.381 1197.45 162.163 1190.56 185.676C1183.66 209.189 1166.49 213.712 1158.76 213.035C1158.57 215.18 1165.22 218.526 1193.36 214.754Z" fill="#1A7C47"/>
<path d="M1280.5 128.605C1305.22 109.43 1295.23 86.9249 1287.14 78.069C1276.36 75.5663 1256.3 77.0294 1262.31 102.904C1268.31 128.779 1254.41 142.563 1246.71 146.221C1247.67 148.338 1255.78 147.78 1280.5 128.605Z" fill="#A3E054"/>
<defs>
<linearGradient id="paint0_linear" x1="263.876" y1="296.745" x2="323.991" y2="296.745" gradientUnits="userSpaceOnUse">
<stop offset="0.572917" stop-color="#BA5D07"/>
<stop offset="0.598958" stop-color="#681111"/>
</linearGradient>
<linearGradient id="paint1_linear" x1="95.5" y1="258.267" x2="176.5" y2="258.267" gradientUnits="userSpaceOnUse">
<stop offset="0.572917" stop-color="#BA5D07"/>
<stop offset="0.598958" stop-color="#681111"/>
</linearGradient>
<linearGradient id="paint2_linear" x1="1284.88" y1="303.745" x2="1344.99" y2="303.745" gradientUnits="userSpaceOnUse">
<stop offset="0.572917" stop-color="#BA5D07"/>
<stop offset="0.598958" stop-color="#681111"/>
</linearGradient>
<linearGradient id="paint3_linear" x1="1116.5" y1="265.267" x2="1197.5" y2="265.267" gradientUnits="userSpaceOnUse">
<stop offset="0.572917" stop-color="#BA5D07"/>
<stop offset="0.598958" stop-color="#681111"/>
</linearGradient>
</defs>
</svg>
