<svg width="211" height="207" viewBox="0 0 211 207" fill="none" xmlns="http://www.w3.org/2000/svg">
<path d="M28.5619 154.827C28.193 153.548 29.1527 152.273 30.4835 152.273H97.8355C99.0916 152.273 100.037 153.417 99.7995 154.651L93.9841 184.891C93.803 185.833 92.979 186.513 92.02 186.513H39.2067C38.3157 186.513 37.5321 185.924 37.2851 185.068L28.5619 154.827Z" fill="black"/>
<path d="M110.212 154.827C109.843 153.548 110.803 152.273 112.134 152.273H179.486C180.742 152.273 181.687 153.417 181.45 154.651L175.634 184.891C175.453 185.833 174.629 186.513 173.67 186.513H120.857C119.966 186.513 119.182 185.924 118.935 185.068L110.212 154.827Z" fill="black"/>
<rect x="26.6913" y="2.32477" width="155.033" height="140.546" rx="2.5" fill="#E3951E" stroke="black" stroke-width="3"/>
<path d="M178.615 25.8466L42.97 138.445H178.615V25.8466Z" fill="#CF692F"/>
<path d="M35.7268 23.8325C35.7268 22.7629 36.5545 21.8958 37.5755 21.8958H74.5484C75.5693 21.8958 76.397 22.7629 76.397 23.8325V60.6293C76.397 61.6989 75.5693 62.566 74.5484 62.566H37.5755C36.5545 62.566 35.7268 61.6989 35.7268 60.6293V23.8325Z" fill="#C0EAF0"/>
<path fill-rule="evenodd" clip-rule="evenodd" d="M38.4998 24.8008V59.661H73.624V24.8008H38.4998ZM37.5755 21.8958C36.5545 21.8958 35.7268 22.7629 35.7268 23.8325V60.6293C35.7268 61.6989 36.5545 62.566 37.5755 62.566H74.5484C75.5693 62.566 76.397 61.6989 76.397 60.6293V23.8325C76.397 22.7629 75.5693 21.8958 74.5484 21.8958H37.5755Z" fill="black"/>
<path d="M73.6242 59.661H44.0459C60.7731 53.2698 66.8879 46.8674 73.6242 32.5475V59.661Z" fill="#93D7E0"/>
<path d="M40.3483 39.6889V27.7058C40.3483 27.171 40.7621 26.7375 41.2726 26.7375H52.6946C53.7278 26.7375 54.0145 28.3375 53.08 28.7993C48.3886 31.1178 45.1933 34.0328 42.3608 40.1159C41.908 41.0882 40.3483 40.7708 40.3483 39.6889Z" fill="#EBFBFD"/>
<path d="M84.531 23.8325C84.531 22.7629 85.3587 21.8958 86.3797 21.8958H123.353C124.374 21.8958 125.201 22.7629 125.201 23.8325V60.6293C125.201 61.6989 124.374 62.566 123.353 62.566H86.3797C85.3587 62.566 84.531 61.6989 84.531 60.6293V23.8325Z" fill="#C0EAF0"/>
<path fill-rule="evenodd" clip-rule="evenodd" d="M87.304 24.8008V59.661H122.428V24.8008H87.304ZM86.3797 21.8958C85.3587 21.8958 84.531 22.7629 84.531 23.8325V60.6293C84.531 61.6989 85.3587 62.566 86.3797 62.566H123.353C124.374 62.566 125.201 61.6989 125.201 60.6293V23.8325C125.201 22.7629 124.374 21.8958 123.353 21.8958H86.3797Z" fill="black"/>
<path d="M122.428 59.661H92.85C109.577 53.2698 115.692 46.8674 122.428 32.5475V59.661Z" fill="#93D7E0"/>
<path d="M89.1526 39.6889V27.7058C89.1526 27.171 89.5664 26.7375 90.0769 26.7375H101.499C102.532 26.7375 102.819 28.3375 101.884 28.7993C97.1929 31.1178 93.9977 34.0328 91.1651 40.1159C90.7123 41.0882 89.1526 40.7708 89.1526 39.6889Z" fill="#EBFBFD"/>
<path d="M133.335 23.8325C133.335 22.7629 134.163 21.8958 135.184 21.8958H172.157C173.178 21.8958 174.006 22.7629 174.006 23.8325V60.6293C174.006 61.6989 173.178 62.566 172.157 62.566H135.184C134.163 62.566 133.335 61.6989 133.335 60.6293V23.8325Z" fill="#C0EAF0"/>
<path fill-rule="evenodd" clip-rule="evenodd" d="M136.108 24.8008V59.661H171.233V24.8008H136.108ZM135.184 21.8958C134.163 21.8958 133.335 22.7629 133.335 23.8325V60.6293C133.335 61.6989 134.163 62.566 135.184 62.566H172.157C173.178 62.566 174.006 61.6989 174.006 60.6293V23.8325C174.006 22.7629 173.178 21.8958 172.157 21.8958H135.184Z" fill="black"/>
<path d="M171.233 59.661H141.654C158.381 53.2698 164.496 46.8674 171.233 32.5475V59.661Z" fill="#93D7E0"/>
<path d="M137.957 39.6889V27.7058C137.957 27.171 138.371 26.7375 138.881 26.7375H150.303C151.336 26.7375 151.623 28.3375 150.689 28.7993C145.997 31.1178 142.802 34.0328 139.969 40.1159C139.517 41.0882 137.957 40.7708 137.957 39.6889Z" fill="#EBFBFD"/>
<path d="M32.3021 24.088C31.5532 20.1168 31.2681 15.1698 33.7901 13.0518C36.3485 10.9032 40.8326 11.1806 44.2528 11.8295C45.3183 12.0317 45.1863 13.4208 44.1213 13.6252C37.4557 14.905 34.9114 18.0147 34.1079 23.9017C33.9556 25.0179 32.5109 25.195 32.3021 24.088Z" fill="#EBFBFD"/>
<path d="M22.9172 143.393L13.9603 153.544C13.6109 153.94 13.6296 154.539 14.003 154.913L20.4661 161.376C20.8819 161.791 21.565 161.76 21.9414 161.309L27.5252 154.608C27.7152 154.38 27.9967 154.248 28.2935 154.248H182.833C183.084 154.248 183.327 154.343 183.511 154.513L190.97 161.399C191.406 161.801 192.093 161.738 192.449 161.264L197.19 154.942C197.489 154.544 197.449 153.987 197.097 153.635L186.809 143.347C186.622 143.16 186.367 143.054 186.102 143.054H23.6671C23.3801 143.054 23.1071 143.177 22.9172 143.393Z" fill="url(#paint0_linear)" stroke="black" stroke-width="3"/>
<mask id="path-19-inside-1" fill="white">
<rect x="0.169434" y="125.934" width="28.9727" height="15.8033" rx="2"/>
</mask>
<rect x="0.169434" y="125.934" width="28.9727" height="15.8033" rx="2" fill="#535044" stroke="black" stroke-width="6" mask="url(#path-19-inside-1)"/>
<path d="M197.686 142.213H182.59C182.314 142.213 182.09 141.989 182.09 141.713V128.634C182.09 128.517 182.131 128.403 182.206 128.313L191.02 117.737C191.115 117.623 191.255 117.557 191.404 117.557H208.221C208.497 117.557 208.721 117.781 208.721 118.057V125.909C208.721 126.186 208.497 126.409 208.221 126.409H201.686C199.753 126.409 198.186 127.976 198.186 129.909V141.713C198.186 141.989 197.962 142.213 197.686 142.213Z" fill="#535044" stroke="black" stroke-width="3"/>
<defs>
<linearGradient id="paint0_linear" x1="105.525" y1="143.054" x2="105.525" y2="162.15" gradientUnits="userSpaceOnUse">
<stop offset="0.307192" stop-color="#FF9600"/>
<stop offset="0.307292" stop-color="#DC8E19"/>
<stop offset="0.307392" stop-color="#E27F0B"/>
</linearGradient>
</defs>
</svg>
