<svg width="47" height="52" viewBox="0 0 47 52" fill="none" xmlns="http://www.w3.org/2000/svg">
<path d="M10.3607 29.2991V49.0286C10.3607 49.5809 10.8085 50.0286 11.3607 50.0286H37.675C38.2272 50.0286 38.675 49.5809 38.675 49.0286V29.2991C38.675 28.7468 39.1227 28.2991 39.675 28.2991H43.6012C44.1535 28.2991 44.6012 27.8514 44.6012 27.2991V14.8127C44.6012 14.2605 44.1535 13.8127 43.6012 13.8127H3.45911C2.90682 13.8127 2.45911 14.2605 2.45911 14.8127V27.2991C2.45911 27.8514 2.90682 28.2991 3.45911 28.2991H9.36075C9.91303 28.2991 10.3607 28.7468 10.3607 29.2991Z" fill="#E14343" stroke="black" stroke-width="3"/>
<path d="M32.7488 28.9575V15.7881H42.6258V28.9575H36.6996V48.0532H26.8225V34.2253H12.3362V28.9575H32.7488Z" fill="#B83232"/>
<path d="M9.04391 23.0313C8.3854 22.3729 9.20319 15.7883 9.04392 15.7881H13.6532C13.6532 15.7881 14.3116 22.3728 13.6532 23.0313C12.9948 23.6898 9.70242 23.6898 9.04391 23.0313Z" fill="#E8E0E0"/>
<path d="M14.4445 36.9573C14.1085 37.966 14.5257 48.0531 14.4445 48.0532H16.7962C16.7962 48.0532 17.1322 37.966 16.7962 36.9573C16.4603 35.9486 14.7805 35.9486 14.4445 36.9573Z" fill="#E8E0E0"/>
<path d="M7.06836 11.8373L11.139 3.1145C11.4676 2.41035 12.1743 1.96027 12.9514 1.96027H34.1826C34.9212 1.96027 35.5997 2.36736 35.9473 3.01909L40.6503 11.8373H7.06836Z" fill="url(#paint0_linear)" stroke="black" stroke-width="3"/>
<path d="M14.3116 7.54502V3.93573H17.604V7.54502C17.604 8.0973 17.1563 8.54502 16.604 8.54502H15.3116C14.7594 8.54502 14.3116 8.0973 14.3116 7.54502Z" fill="#DFDBDB"/>
<defs>
<linearGradient id="paint0_linear" x1="11.0192" y1="7.22803" x2="36.6995" y2="7.22803" gradientUnits="userSpaceOnUse">
<stop offset="0.635417" stop-color="#535044"/>
<stop offset="0.635517" stop-color="#2C2A24"/>
</linearGradient>
</defs>
</svg>
