<svg width="47" height="47" viewBox="0 0 47 47" fill="none" xmlns="http://www.w3.org/2000/svg">
<circle cx="23.7022" cy="23.2209" r="21.5464" fill="#535044" stroke="black" stroke-width="3"/>
<mask id="path-2-inside-1" fill="white">
<path d="M40.164 23.221C40.164 32.3125 32.7938 39.6827 23.7022 39.6827C14.6107 39.6827 7.24048 32.3125 7.24048 23.221C7.24048 14.1294 14.6107 6.75922 23.7022 6.75922C32.7938 6.75922 40.164 14.1294 40.164 23.221ZM13.5286 23.221C13.5286 28.8397 18.0835 33.3946 23.7022 33.3946C29.321 33.3946 33.8759 28.8397 33.8759 23.221C33.8759 17.6022 29.321 13.0473 23.7022 13.0473C18.0835 13.0473 13.5286 17.6022 13.5286 23.221Z"/>
</mask>
<path d="M40.164 23.221C40.164 32.3125 32.7938 39.6827 23.7022 39.6827C14.6107 39.6827 7.24048 32.3125 7.24048 23.221C7.24048 14.1294 14.6107 6.75922 23.7022 6.75922C32.7938 6.75922 40.164 14.1294 40.164 23.221ZM13.5286 23.221C13.5286 28.8397 18.0835 33.3946 23.7022 33.3946C29.321 33.3946 33.8759 28.8397 33.8759 23.221C33.8759 17.6022 29.321 13.0473 23.7022 13.0473C18.0835 13.0473 13.5286 17.6022 13.5286 23.221Z" fill="#C4C4C4" stroke="#494844" stroke-width="2" mask="url(#path-2-inside-1)"/>
<circle cx="23.7022" cy="23.2209" r="4.60929" fill="#2C2A24"/>
</svg>
