<svg width="95" height="95" viewBox="0 0 95 95" fill="none" xmlns="http://www.w3.org/2000/svg">
<circle cx="47.6148" cy="47.516" r="45.2514" fill="#535044" stroke="black" stroke-width="3"/>
<mask id="path-2-inside-1" fill="white">
<path d="M85.1475 47.516C85.1475 68.2448 68.3435 85.0488 47.6147 85.0488C26.8859 85.0488 10.0819 68.2448 10.0819 47.516C10.0819 26.7872 26.8859 9.98322 47.6147 9.98322C68.3435 9.98322 85.1475 26.7872 85.1475 47.516ZM19.4847 47.516C19.4847 63.0518 32.0789 75.646 47.6147 75.646C63.1505 75.646 75.7447 63.0518 75.7447 47.516C75.7447 31.9802 63.1505 19.386 47.6147 19.386C32.0789 19.386 19.4847 31.9802 19.4847 47.516Z"/>
</mask>
<path d="M85.1475 47.516C85.1475 68.2448 68.3435 85.0488 47.6147 85.0488C26.8859 85.0488 10.0819 68.2448 10.0819 47.516C10.0819 26.7872 26.8859 9.98322 47.6147 9.98322C68.3435 9.98322 85.1475 26.7872 85.1475 47.516ZM19.4847 47.516C19.4847 63.0518 32.0789 75.646 47.6147 75.646C63.1505 75.646 75.7447 63.0518 75.7447 47.516C75.7447 31.9802 63.1505 19.386 47.6147 19.386C32.0789 19.386 19.4847 31.9802 19.4847 47.516Z" fill="#E14343" stroke="#494844" stroke-width="2" mask="url(#path-2-inside-1)"/>
<circle cx="47.6147" cy="47.516" r="13.8279" fill="#2C2A24"/>
<rect x="41.6885" y="13.9341" width="11.8525" height="2.63388" rx="1.31694" fill="#E7E7E7"/>
</svg>
